<svg width="9" height="29" viewBox="0 0 9 29" fill="none" xmlns="http://www.w3.org/2000/svg">
<path d="M1.25428 28.2948C1.08539 28.2948 0.916505 28.1812 0.783172 27.9377C0.525395 27.4669 0.525395 26.6877 0.783173 26.217L6.57873 15.6329C7.0054 14.8537 7.0054 13.5875 6.57873 12.8083L0.783177 2.22419C0.525399 1.75343 0.525399 0.97423 0.783177 0.503465C1.04095 0.0326994 1.46762 0.0326995 1.7254 0.503465L7.52095 11.0876C7.97429 11.9155 8.23206 13.0356 8.23206 14.2206C8.23206 15.4056 7.98317 16.5257 7.52095 17.3536L1.72539 27.9377C1.59206 28.165 1.42317 28.2948 1.25428 28.2948Z" fill="#EEEEEE"/>
</svg>
