<svg width="9" height="29" viewBox="0 0 9 29" fill="none" xmlns="http://www.w3.org/2000/svg">
<path d="M7.74571 0.144613C7.9146 0.144613 8.08349 0.258244 8.21682 0.501743C8.4746 0.972509 8.4746 1.75171 8.21682 2.22247L2.42127 12.8066C1.9946 13.5858 1.9946 14.852 2.42127 15.6312L8.21682 26.2153C8.4746 26.686 8.4746 27.4652 8.21682 27.936C7.95905 28.4068 7.53238 28.4068 7.2746 27.936L1.47904 17.3519C1.02571 16.524 0.767934 15.4039 0.767934 14.2189C0.767934 13.0338 1.01682 11.9137 1.47904 11.0858L7.2746 0.501743C7.40793 0.274477 7.57682 0.144613 7.74571 0.144613Z" fill="#EEEEEE"/>
</svg>
