<?xml version="1.0" encoding="iso-8859-1"?>
<!-- Generator: Adobe Illustrator 19.0.0, SVG Export Plug-In . SVG Version: 6.00 Build 0)  -->
<svg version="1.1" id="Layer_1" xmlns="http://www.w3.org/2000/svg" xmlns:xlink="http://www.w3.org/1999/xlink" x="0px" y="0px"
	 viewBox="0 0 504 504" style="enable-background:new 0 0 504 504;" xml:space="preserve">
<circle style="fill:#FFD05B;" cx="252" cy="252" r="252"/>
<path style="fill:#E6E9EE;" d="M252,172.8c30.4,0,54.8-35.2,54.8-78.4H197.2C197.2,137.6,221.6,172.8,252,172.8z"/>
<path style="fill:#324A5E;" d="M384.8,102.8c-5.2-5.2-12.8-8.4-20-8.4h-44l0,0h2c0,52-31.6,94-70.8,94c-38.8,0-70.8-42.4-70.8-94
	h1.2l0,0h-42.8c-7.6,0-14.8,3.2-20.4,8.4L58,164.4l44.4,44.4l25.6-25.6v226.4h248.8V183.2l25.6,25.6l44.4-44.4L384.8,102.8z"/>
<path style="fill:#ACB3BA;" d="M252,172.8c-30.4,0-54.8-35.2-54.8-78.4h-15.6c0,52,31.6,94,70.8,94c38.8,0,70.8-42.4,70.8-94h-15.6
	C306.8,137.6,282.4,172.8,252,172.8z"/>
<path style="fill:#FF7058;" d="M252,250.4c11.2-14,26.4-17.2,37.6-12.8c26.8,10.4,33.2,49.6,10,74.4C252,363.2,252,363.2,252,363.2
	s0,0-47.6-51.2c-23.2-24.8-16.8-64,10-74.4C225.6,233.2,240.8,236.4,252,250.4z"/>
<g>
</g>
<g>
</g>
<g>
</g>
<g>
</g>
<g>
</g>
<g>
</g>
<g>
</g>
<g>
</g>
<g>
</g>
<g>
</g>
<g>
</g>
<g>
</g>
<g>
</g>
<g>
</g>
<g>
</g>
</svg>
