<?xml version="1.0" encoding="iso-8859-1"?>
<!-- Generator: Adobe Illustrator 19.0.0, SVG Export Plug-In . SVG Version: 6.00 Build 0)  -->
<svg version="1.1" id="Layer_1" xmlns="http://www.w3.org/2000/svg" xmlns:xlink="http://www.w3.org/1999/xlink" x="0px" y="0px"
	 viewBox="0 0 512.006 512.006" style="enable-background:new 0 0 512.006 512.006;" xml:space="preserve">
<circle style="fill:#FFE356;" cx="256.003" cy="256.003" r="256.003"/>
<path style="fill:#FF7069;" d="M184.47,222.192h143.066v71.303c0,31.056-25.407,56.462-56.462,56.462h-30.135
	c-31.056,0-56.462-25.407-56.462-56.462v-71.303H184.47z"/>
<polygon style="fill:#FFFFFF;" points="184.47,222.192 327.536,222.192 327.536,241.883 184.47,241.883 "/>
<path style="fill:#5FDC68;" d="M328.977,122.467c7.502-94.699-127.027-135.576-166.45-0.581c0,0,23.148-23.414,43.977-19.788
	c28.616,4.983,48.076,67.174,122.479,20.369H328.977z"/>
<path style="fill:#56BF5D;" d="M173.504,93.198c-4.172,8.513-7.871,18.05-10.978,28.682c0,0,23.148-23.414,43.977-19.788
	c7.865,1.368,15.04,7.066,22.857,13.624l0,0c-4.862-8.447-30.717-35.155-55.851-22.524L173.504,93.198z"/>
<path style="fill:#5D718F;" d="M340.373,127.886l-4.88,4.432c-29.245-38.146-98.017-91.563-139.112-53.017
	C239.17,35.082,311.939,88.523,340.373,127.886z"/>
<path style="fill:#5FDC68;" d="M109.788,244.832c-85.768,40.853-53.901,177.791,82.723,144.441c0,0-31.855-8.344-39.121-28.192
	C143.399,333.803,187.528,285.854,109.788,244.832z"/>
<path style="fill:#56BF5D;" d="M162.182,394.11c9.458-0.642,19.564-2.21,30.329-4.838c0,0-31.855-8.344-39.121-28.192
	c-2.743-7.496-1.405-16.56,0.375-26.605l0,0C148.885,342.91,138.682,378.652,162.182,394.11z"/>
<path style="fill:#5D718F;" d="M108.777,232.249l6.279,2.01c-18.413,44.401-30.287,130.666,23.645,146.984
	C79.011,366.294,88.911,276.553,108.777,232.249z"/>
<path style="fill:#5FDC68;" d="M326.428,378.434c78.26,53.847,180.922-42.221,83.728-143.865c0,0,8.701,31.758-4.85,47.979
	C386.681,304.836,323.092,290.595,326.428,378.434z"/>
<path style="fill:#56BF5D;" d="M429.513,258.419c-5.286-7.871-11.698-15.846-19.358-23.85c0,0,8.701,31.758-4.85,47.979
	c-5.116,6.128-13.636,9.494-23.233,12.982l0,0c9.748,0.006,45.8-9.028,47.434-37.105L429.513,258.419z"/>
<path style="fill:#5D718F;" d="M316.038,385.591l-1.399-6.442c47.658-6.255,128.298-39.103,115.468-93.967
	C447.006,344.345,364.344,380.644,316.038,385.591z"/>
<path style="fill:#ECF0F1;" d="M241.078,349.855h29.851v19.582c0,2.337-1.907,4.238-4.238,4.238h-21.368
	c-2.337,0-4.238-1.907-4.238-4.238v-19.582H241.078z"/>
<path style="fill:#6C7678;" d="M250.784,373.681h10.433v138.253c-1.738,0.03-3.476,0.067-5.219,0.067
	c-1.744,0-3.482-0.03-5.219-0.067V373.681H250.784z"/>
<path style="fill:#FFFFFF;" d="M232.104,171.736v50.456h-25.643v-50.456C206.461,154.776,232.104,154.776,232.104,171.736z"/>
<path style="fill:#ECF0F1;" d="M227.242,171.736v50.456h4.862v-50.456c0-9.561-8.144-13.733-15.252-12.516
	C222.356,160.159,227.242,164.331,227.242,171.736z"/>
<path style="fill:#FFFFFF;" d="M305.539,171.736v50.456h-25.643v-50.456C279.896,154.776,305.539,154.776,305.539,171.736z"/>
<path style="fill:#ECF0F1;" d="M300.676,171.736v50.456h4.862v-50.456c0-9.561-8.144-13.733-15.252-12.516
	C295.79,160.159,300.676,164.331,300.676,171.736z"/>
<g>
</g>
<g>
</g>
<g>
</g>
<g>
</g>
<g>
</g>
<g>
</g>
<g>
</g>
<g>
</g>
<g>
</g>
<g>
</g>
<g>
</g>
<g>
</g>
<g>
</g>
<g>
</g>
<g>
</g>
</svg>
