<?xml version="1.0" encoding="iso-8859-1"?>
<!-- Generator: Adobe Illustrator 19.0.0, SVG Export Plug-In . SVG Version: 6.00 Build 0)  -->
<svg version="1.1" id="Layer_1" xmlns="http://www.w3.org/2000/svg" xmlns:xlink="http://www.w3.org/1999/xlink" x="0px" y="0px"
	 viewBox="0 0 512 512" style="enable-background:new 0 0 512 512;" xml:space="preserve">
<path style="fill:#FBD867;" d="M267.13,22.516L244.87,0.255C108.651,6.085,0,118.345,0,256
	c0,133.518,102.222,243.143,232.669,254.93L267.13,22.516z"/>
<path style="fill:#F9BE02;" d="M512,256C512,118.345,403.349,6.085,267.13,0.255L256,256L38.957,317.217l193.714,193.714
	C240.355,511.625,248.133,512,256,512C397.385,512,512,397.384,512,256z"/>
<path style="fill:#263230;" d="M244.87,0.255V139.33h22.261V0.255C263.438,0.097,259.731,0,256,0
	C252.269,0,248.562,0.097,244.87,0.255z"/>
<path style="fill:#4C6460;" d="M256,66.783l-22.261,111.304l89.043-44.522C322.783,96.682,292.883,66.783,256,66.783z"/>
<path style="fill:#889391;" d="M189.217,133.565L256,178.087V66.783C219.117,66.783,189.217,96.682,189.217,133.565z"/>
<path style="fill:#FEF2CC;" d="M256,239.304l-25.971,78.869L256,395.13c43.03,0,77.913-34.883,77.913-77.913
	S299.03,239.304,256,239.304z"/>
<path style="fill:#FFFFFF;" d="M178.087,317.217c0,43.03,34.883,77.913,77.913,77.913V239.304
	C212.97,239.304,178.087,274.187,178.087,317.217z"/>
<path style="fill:#263230;" d="M449.424,294.957c-8.908-75.439-60.925-137.676-130.741-161.391H256l-11.13,172.522L449.424,294.957z
	"/>
<path style="fill:#394B48;" d="M256,306.087V133.565h-62.682c-69.817,23.716-121.833,85.953-130.741,161.391L256,306.087z"/>
<g>
	<rect x="178.087" y="217.043" style="fill:#263230;" width="22.261" height="22.261"/>
	<rect x="211.478" y="250.435" style="fill:#263230;" width="22.261" height="22.261"/>
</g>
<polygon style="fill:#394B48;" points="256,294.957 233.739,306.087 256,317.217 473.043,317.217 473.043,294.957 "/>
<rect x="38.957" y="294.957" style="fill:#4C6460;" width="217.043" height="22.261"/>
<g>
</g>
<g>
</g>
<g>
</g>
<g>
</g>
<g>
</g>
<g>
</g>
<g>
</g>
<g>
</g>
<g>
</g>
<g>
</g>
<g>
</g>
<g>
</g>
<g>
</g>
<g>
</g>
<g>
</g>
</svg>
