<?xml version="1.0" encoding="iso-8859-1"?>
<!-- Generator: Adobe Illustrator 19.0.0, SVG Export Plug-In . SVG Version: 6.00 Build 0)  -->
<svg version="1.1" id="Layer_1" xmlns="http://www.w3.org/2000/svg" xmlns:xlink="http://www.w3.org/1999/xlink" x="0px" y="0px"
	 viewBox="0 0 460 460" style="enable-background:new 0 0 460 460;" xml:space="preserve">
<g id="XMLID_1090_">
	<path id="XMLID_42_" style="fill:#FFAE46;" d="M444.903,147.918C411.849,61.431,328.105,0,230,0C102.975,0,0,102.974,0,230
		c0,98.105,61.431,181.849,147.918,214.903L444.903,147.918z"/>
	<path id="XMLID_41_" style="fill:#FE843F;" d="M460,230c0-28.92-5.353-56.586-15.097-82.082l-66.41-66.41L81.508,378.492
		l66.411,66.411C173.414,454.647,201.08,460,230,460C357.026,460,460,357.025,460,230z"/>
	<path id="XMLID_40_" style="fill:#DB3916;" d="M378.493,81.507c-26.641-7.243-53.755-10.476-80.347-9.641l-44.217,5.284
		c-42.902,9.071-82.78,29.578-114.99,61.788c-33.004,33.004-53.722,74.06-62.438,118.17l-4.634,41.038
		c-0.835,26.591,2.398,53.706,9.641,80.346l155.563-141.421L378.493,81.507z"/>
	<path id="XMLID_39_" style="fill:#6E1D0B;" d="M378.493,81.508c7.243,26.641,10.476,53.755,9.641,80.347l-5.284,44.217
		c-9.071,42.902-29.578,82.78-61.788,114.99c-33.004,33.004-74.06,53.721-118.17,62.438l-41.038,4.634
		c-26.591,0.835-53.706-2.398-80.346-9.641L378.493,81.508z"/>
	<path id="XMLID_38_" style="fill:#FFFFFF;" d="M318.389,141.612L253.93,77.153c14.455-3.056,29.253-4.811,44.217-5.281
		l44.991,44.991l-5.303,19.445L318.389,141.612z"/>
	<path id="XMLID_37_" style="fill:#FFFFFF;" d="M141.612,318.388l-64.459-64.459c-3.056,14.455-4.811,29.253-5.281,44.217
		l44.991,44.991l19.445-5.303L141.612,318.388z"/>
	<polygon id="XMLID_36_" style="fill:#FFFFFF;" points="280.219,179.781 259.006,158.568 244.864,172.71 259.006,186.852 
		230,215.858 215.858,201.716 201.716,215.858 215.858,230 186.853,259.005 172.71,244.863 158.568,259.005 179.782,280.219 
		193.926,280.216 280.217,193.926 	"/>
	<path id="XMLID_35_" style="fill:#FFF2D4;" d="M318.389,141.612l64.459,64.459c3.056-14.455,4.811-29.253,5.281-44.217
		l-44.991-44.991L318.389,141.612z"/>
	
		<rect id="XMLID_34_" x="187.456" y="268.754" transform="matrix(-0.7071 0.7071 -0.7071 -0.7071 537.7219 344.7755)" style="fill:#FFF2D4;" width="20" height="30"/>
	
		<rect id="XMLID_33_" x="230.604" y="225.607" transform="matrix(-0.7071 0.7071 -0.7071 -0.7071 580.8713 240.6088)" style="fill:#FFF2D4;" width="20" height="30"/>
	
		<rect id="XMLID_32_" x="273.751" y="182.46" transform="matrix(-0.7071 0.7071 -0.7071 -0.7071 624.0183 136.443)" style="fill:#FFF2D4;" width="20" height="30"/>
	<path id="XMLID_3_" style="fill:#FFF2D4;" d="M141.612,318.388l64.459,64.459c-14.455,3.056-29.253,4.811-44.217,5.281
		l-44.991-44.991L141.612,318.388z"/>
</g>
<g>
</g>
<g>
</g>
<g>
</g>
<g>
</g>
<g>
</g>
<g>
</g>
<g>
</g>
<g>
</g>
<g>
</g>
<g>
</g>
<g>
</g>
<g>
</g>
<g>
</g>
<g>
</g>
<g>
</g>
</svg>
