<?xml version="1.0" encoding="iso-8859-1"?>
<!-- Generator: Adobe Illustrator 16.0.0, SVG Export Plug-In . SVG Version: 6.00 Build 0)  -->
<!DOCTYPE svg PUBLIC "-//W3C//DTD SVG 1.1//EN" "http://www.w3.org/Graphics/SVG/1.1/DTD/svg11.dtd">
<svg version="1.1" id="Capa_1" xmlns="http://www.w3.org/2000/svg" xmlns:xlink="http://www.w3.org/1999/xlink" x="0px" y="0px"
	 width="509.49px" height="509.49px" viewBox="0 0 509.49 509.49" style="enable-background:new 0 0 509.49 509.49;"
	 xml:space="preserve">
<g>
	<g>
		<rect x="255.51" y="236.487" width="113.22" height="59.882"/>
		<polygon points="224.91,135.514 132.743,135.514 139.597,205.891 224.91,205.891 		"/>
		<polygon points="224.91,296.369 224.91,236.491 142.578,236.491 148.41,296.369 		"/>
		<polygon points="224.91,45.029 123.93,45.029 129.762,104.914 224.91,104.914 		"/>
		<polygon points="399.33,296.369 460.529,296.369 472.195,236.491 399.33,236.491 		"/>
		<rect x="255.51" y="45.029" width="113.22" height="59.881"/>
		<rect x="255.51" y="135.514" width="113.22" height="70.377"/>
		<polygon points="399.33,104.914 497.826,104.914 509.49,45.029 399.33,45.029 		"/>
		<polygon points="399.33,205.891 478.156,205.891 491.865,135.514 399.33,135.514 		"/>
		<polygon points="92.122,29.729 0,29.729 0,60.33 63.939,60.33 88.419,357.571 460.529,357.571 460.529,326.972 116.602,326.972 		
			"/>
		<circle cx="136.935" cy="433.096" r="46.665"/>
		<circle cx="404.686" cy="433.096" r="46.665"/>
	</g>
</g>
<g>
</g>
<g>
</g>
<g>
</g>
<g>
</g>
<g>
</g>
<g>
</g>
<g>
</g>
<g>
</g>
<g>
</g>
<g>
</g>
<g>
</g>
<g>
</g>
<g>
</g>
<g>
</g>
<g>
</g>
</svg>
