<?xml version="1.0" encoding="iso-8859-1"?>
<!-- Generator: Adobe Illustrator 19.0.0, SVG Export Plug-In . SVG Version: 6.00 Build 0)  -->
<svg version="1.1" id="Layer_1" xmlns="http://www.w3.org/2000/svg" xmlns:xlink="http://www.w3.org/1999/xlink" x="0px" y="0px"
	 viewBox="0 0 512 512" style="enable-background:new 0 0 512 512;" xml:space="preserve">
<path style="fill:#6DC82A;" d="M488.727,66.493h-88.658H256.002H111.931H23.273C10.42,66.493,0,76.913,0,89.766v88.658v155.152
	v88.658c0,12.853,10.42,23.273,23.273,23.273h88.658h0.031h144.041h144.068h88.657c12.853,0,23.273-10.42,23.273-23.273v-88.658
	V178.424V89.766C512,76.913,501.58,66.493,488.727,66.493z"/>
<path style="fill:#64C37D;" d="M46.545,199.247v113.509c43.072,9.148,77.068,43.132,86.215,86.204h123.242v-76.063c0,0,0,0-0.002,0
	c-47.298,0-84.348-29.384-84.348-66.897c0-37.516,37.05-66.901,84.348-66.901c0.002,0,0.002,0,0.002,0v-76.06H132.752
	C123.606,156.112,89.619,190.099,46.545,199.247z"/>
<path style="fill:#A4E276;" d="M340.351,256c0,37.513-37.05,66.897-84.35,66.897v76.063h123.245
	c9.148-43.073,43.135-77.061,86.208-86.207V199.247c-43.073-9.146-77.061-43.135-86.208-86.207H256.002v76.058
	C303.301,189.099,340.351,218.484,340.351,256z"/>
<g>
	<path style="fill:#368B4C;" d="M132.76,398.961c-9.146-43.073-43.143-77.058-86.215-86.205V199.247
		c43.073-9.146,77.061-43.135,86.207-86.207h123.249V66.495H111.931H23.273C10.42,66.495,0,76.915,0,89.768v88.657v155.152v88.658
		c0,12.853,10.42,23.273,23.273,23.273h88.658h0.031h144.041v-46.545H132.76z"/>
	<path style="fill:#368B4C;" d="M256,189.099c-47.298,0-84.348,29.386-84.348,66.901c0,37.513,37.05,66.897,84.348,66.897
		c0.002,0,0.002,0,0.002,0V189.099C256.002,189.099,256.002,189.099,256,189.099z"/>
</g>
<path style="fill:#6DC82A;" d="M340.351,256c0-37.516-37.05-66.901-84.35-66.901v133.798
	C303.301,322.897,340.351,293.513,340.351,256z"/>
<g>
</g>
<g>
</g>
<g>
</g>
<g>
</g>
<g>
</g>
<g>
</g>
<g>
</g>
<g>
</g>
<g>
</g>
<g>
</g>
<g>
</g>
<g>
</g>
<g>
</g>
<g>
</g>
<g>
</g>
</svg>
