<?xml version="1.0" encoding="iso-8859-1"?>
<!-- Generator: Adobe Illustrator 17.1.0, SVG Export Plug-In . SVG Version: 6.00 Build 0)  -->
<!DOCTYPE svg PUBLIC "-//W3C//DTD SVG 1.1//EN" "http://www.w3.org/Graphics/SVG/1.1/DTD/svg11.dtd">
<svg version="1.1" id="Capa_1" xmlns="http://www.w3.org/2000/svg" xmlns:xlink="http://www.w3.org/1999/xlink" x="0px" y="0px"
	 viewBox="0 0 226.146 226.146" style="enable-background:new 0 0 226.146 226.146;" xml:space="preserve">
<path d="M113.073,226.146C50.724,226.146,0,175.422,0,113.073S50.724,0,113.073,0c62.349,0,113.073,50.725,113.073,113.073
	S175.421,226.146,113.073,226.146z M113.073,10C56.239,10,10,56.238,10,113.073s46.238,103.073,103.072,103.073
	c56.835,0,103.073-46.238,103.073-103.073S169.908,10,113.073,10z M113.073,21.537c-50.474,0-91.536,41.063-91.536,91.536
	s41.063,91.536,91.536,91.536c50.474,0,91.537-41.063,91.537-91.536S163.546,21.537,113.073,21.537z M160.324,102.286
	l-46.641,46.641c-2.6,2.6-6.056,4.031-9.732,4.031c-3.678,0-7.134-1.432-9.733-4.032L65.823,120.53
	c-2.777-2.775-4.307-6.468-4.307-10.395c0-3.927,1.529-7.619,4.307-10.396c2.776-2.777,6.469-4.307,10.396-4.307
	c3.927,0,7.619,1.529,10.396,4.307l17.337,17.336l35.582-35.581c2.776-2.777,6.469-4.307,10.395-4.307
	c3.927,0,7.619,1.529,10.396,4.307c2.777,2.775,4.307,6.468,4.307,10.396C164.63,95.817,163.101,99.51,160.324,102.286z"/>
<g>
</g>
<g>
</g>
<g>
</g>
<g>
</g>
<g>
</g>
<g>
</g>
<g>
</g>
<g>
</g>
<g>
</g>
<g>
</g>
<g>
</g>
<g>
</g>
<g>
</g>
<g>
</g>
<g>
</g>
</svg>
