<?xml version="1.0" encoding="iso-8859-1"?>
<!-- Generator: Adobe Illustrator 19.0.0, SVG Export Plug-In . SVG Version: 6.00 Build 0)  -->
<svg version="1.1" id="Layer_1" xmlns="http://www.w3.org/2000/svg" xmlns:xlink="http://www.w3.org/1999/xlink" x="0px" y="0px"
	 viewBox="0 0 512 512" style="enable-background:new 0 0 512 512;" xml:space="preserve">
<path style="fill:#F2C500;" d="M454.689,467.255H57.311C25.71,467.255,0,441.545,0,409.943V102.057
	c0-31.601,25.71-57.311,57.311-57.311h397.377c31.602,0,57.311,25.71,57.311,57.311v307.886
	C512,441.545,486.29,467.255,454.689,467.255z"/>
<g>
	<path style="fill:#F59D00;" d="M75.879,44.745v65.499c0,13.565,10.997,24.562,24.562,24.562s24.562-10.997,24.562-24.562V44.745
		C125.003,44.745,75.879,44.745,75.879,44.745z"/>
	<path style="fill:#F59D00;" d="M100.441,329.147c-13.565,0-24.562-10.997-24.562-24.562v-97.171
		c0-13.565,10.997-24.562,24.562-24.562s24.562,10.997,24.562,24.562v97.171C125.003,318.15,114.005,329.147,100.441,329.147z"/>
	<path style="fill:#F59D00;" d="M100.441,377.194c-13.565,0-24.562,10.997-24.562,24.562v65.499h49.124v-65.499
		C125.003,388.191,114.005,377.194,100.441,377.194z"/>
	<path style="fill:#F59D00;" d="M454.689,44.745H256v422.509h198.689c31.602,0,57.311-25.71,57.311-57.311V102.057
		C512,70.455,486.29,44.745,454.689,44.745z"/>
</g>
<path style="fill:#E87E04;" d="M512,329.683H356.953c-41.231,0-75.685-33.74-74.98-74.965c0.686-40.041,33.471-72.402,73.671-72.402
	h156.354v147.367H512z"/>
<circle style="fill:#D55400;" cx="363.452" cy="256.002" r="30.008"/>
<g>
</g>
<g>
</g>
<g>
</g>
<g>
</g>
<g>
</g>
<g>
</g>
<g>
</g>
<g>
</g>
<g>
</g>
<g>
</g>
<g>
</g>
<g>
</g>
<g>
</g>
<g>
</g>
<g>
</g>
</svg>
