<svg width="76" height="76" viewBox="0 0 76 76" fill="none" xmlns="http://www.w3.org/2000/svg">
<path fill-rule="evenodd" clip-rule="evenodd" d="M38.0003 0.416504C17.2441 0.416504 0.416992 17.2436 0.416992 37.9998C0.416992 58.7561 17.2441 75.5832 38.0003 75.5832C58.7566 75.5832 75.5837 58.7561 75.5837 37.9998C75.5837 17.2436 58.7566 0.416504 38.0003 0.416504ZM41.417 20.9165C41.417 20.0103 41.057 19.1413 40.4163 18.5006C39.7755 17.8598 38.9065 17.4998 38.0003 17.4998C37.0942 17.4998 36.2251 17.8598 35.5844 18.5006C34.9436 19.1413 34.5837 20.0103 34.5837 20.9165V41.4165C34.5837 42.3227 34.9436 43.1917 35.5844 43.8325C36.2251 44.4732 37.0942 44.8332 38.0003 44.8332C38.9065 44.8332 39.7755 44.4732 40.4163 43.8325C41.057 43.1917 41.417 42.3227 41.417 41.4165V20.9165ZM41.417 53.3748C41.417 52.4687 41.057 51.5996 40.4163 50.9589C39.7755 50.3181 38.9065 49.9582 38.0003 49.9582C37.0942 49.9582 36.2251 50.3181 35.5844 50.9589C34.9436 51.5996 34.5837 52.4687 34.5837 53.3748V55.0832C34.5837 55.9893 34.9436 56.8584 35.5844 57.4991C36.2251 58.1399 37.0942 58.4998 38.0003 58.4998C38.9065 58.4998 39.7755 58.1399 40.4163 57.4991C41.057 56.8584 41.417 55.9893 41.417 55.0832V53.3748Z" fill="#C63B4B"/>
</svg>
